<svg width="780" height="717" viewBox="0 0 780 717" fill="none" xmlns="http://www.w3.org/2000/svg">
<circle cx="79" cy="335" r="1" fill="#343D56" fill-opacity="0.3"/>
<circle cx="79" cy="357" r="1" fill="#343D56" fill-opacity="0.3"/>
<circle cx="101" cy="335" r="1" fill="#343D56" fill-opacity="0.3"/>
<circle cx="101" cy="357" r="1" fill="#343D56" fill-opacity="0.3"/>
<circle cx="79" cy="423" r="1" fill="#343D56" fill-opacity="0.3"/>
<circle cx="79" cy="445" r="1" fill="#343D56" fill-opacity="0.3"/>
<circle cx="101" cy="423" r="1" fill="#343D56" fill-opacity="0.3"/>
<circle cx="101" cy="445" r="1" fill="#343D56" fill-opacity="0.3"/>
<circle cx="168" cy="335" r="1" fill="#343D56" fill-opacity="0.3"/>
<circle cx="168" cy="357" r="1" fill="#343D56" fill-opacity="0.3"/>
<circle cx="190" cy="335" r="1" fill="#343D56" fill-opacity="0.3"/>
<circle cx="190" cy="357" r="1" fill="#343D56" fill-opacity="0.3"/>
<circle cx="168" cy="423" r="1" fill="#343D56" fill-opacity="0.3"/>
<circle cx="168" cy="445" r="1" fill="#343D56" fill-opacity="0.3"/>
<circle cx="190" cy="423" r="1" fill="#343D56" fill-opacity="0.3"/>
<circle cx="190" cy="445" r="1" fill="#343D56" fill-opacity="0.3"/>
<circle cx="80" cy="379" r="1" fill="#343D56" fill-opacity="0.3"/>
<circle cx="80" cy="401" r="1" fill="#343D56" fill-opacity="0.3"/>
<circle cx="102" cy="379" r="1" fill="#343D56" fill-opacity="0.3"/>
<circle cx="102" cy="401" r="1" fill="#343D56" fill-opacity="0.3"/>
<circle cx="80" cy="467" r="1" fill="#343D56" fill-opacity="0.3"/>
<circle cx="80" cy="489" r="1" fill="#343D56" fill-opacity="0.3"/>
<circle cx="102" cy="467" r="1" fill="#343D56" fill-opacity="0.3"/>
<circle cx="102" cy="489" r="1" fill="#343D56" fill-opacity="0.3"/>
<circle cx="169" cy="379" r="1" fill="#343D56" fill-opacity="0.3"/>
<circle cx="169" cy="401" r="1" fill="#343D56" fill-opacity="0.3"/>
<circle cx="191" cy="379" r="1" fill="#343D56" fill-opacity="0.3"/>
<circle cx="191" cy="401" r="1" fill="#343D56" fill-opacity="0.3"/>
<circle cx="169" cy="467" r="1" fill="#343D56" fill-opacity="0.3"/>
<circle cx="169" cy="489" r="1" fill="#343D56" fill-opacity="0.3"/>
<circle cx="191" cy="467" r="1" fill="#343D56" fill-opacity="0.3"/>
<circle cx="191" cy="489" r="1" fill="#343D56" fill-opacity="0.3"/>
<circle cx="123" cy="335" r="1" fill="#343D56" fill-opacity="0.3"/>
<circle cx="123" cy="357" r="1" fill="#343D56" fill-opacity="0.3"/>
<circle cx="145" cy="335" r="1" fill="#343D56" fill-opacity="0.3"/>
<circle cx="145" cy="357" r="1" fill="#343D56" fill-opacity="0.3"/>
<circle cx="123" cy="423" r="1" fill="#343D56" fill-opacity="0.3"/>
<circle cx="123" cy="445" r="1" fill="#343D56" fill-opacity="0.3"/>
<circle cx="145" cy="423" r="1" fill="#343D56" fill-opacity="0.3"/>
<circle cx="145" cy="445" r="1" fill="#343D56" fill-opacity="0.3"/>
<circle cx="212" cy="335" r="1" fill="#343D56" fill-opacity="0.3"/>
<circle cx="212" cy="357" r="1" fill="#343D56" fill-opacity="0.3"/>
<circle cx="234" cy="335" r="1" fill="#343D56" fill-opacity="0.3"/>
<circle cx="234" cy="357" r="1" fill="#343D56" fill-opacity="0.3"/>
<circle cx="212" cy="423" r="1" fill="#343D56" fill-opacity="0.3"/>
<circle cx="212" cy="445" r="1" fill="#343D56" fill-opacity="0.3"/>
<circle cx="234" cy="423" r="1" fill="#343D56" fill-opacity="0.3"/>
<circle cx="234" cy="445" r="1" fill="#343D56" fill-opacity="0.3"/>
<circle cx="124" cy="379" r="1" fill="#343D56" fill-opacity="0.3"/>
<circle cx="124" cy="401" r="1" fill="#343D56" fill-opacity="0.3"/>
<circle cx="146" cy="379" r="1" fill="#343D56" fill-opacity="0.3"/>
<circle cx="146" cy="401" r="1" fill="#343D56" fill-opacity="0.3"/>
<circle cx="124" cy="467" r="1" fill="#343D56" fill-opacity="0.3"/>
<circle cx="124" cy="489" r="1" fill="#343D56" fill-opacity="0.3"/>
<circle cx="146" cy="467" r="1" fill="#343D56" fill-opacity="0.3"/>
<circle cx="146" cy="489" r="1" fill="#343D56" fill-opacity="0.3"/>
<circle cx="213" cy="379" r="1" fill="#343D56" fill-opacity="0.3"/>
<circle cx="213" cy="401" r="1" fill="#343D56" fill-opacity="0.3"/>
<circle cx="235" cy="379" r="1" fill="#343D56" fill-opacity="0.3"/>
<circle cx="235" cy="401" r="1" fill="#343D56" fill-opacity="0.3"/>
<circle cx="213" cy="467" r="1" fill="#343D56" fill-opacity="0.3"/>
<circle cx="213" cy="489" r="1" fill="#343D56" fill-opacity="0.3"/>
<circle cx="235" cy="467" r="1" fill="#343D56" fill-opacity="0.3"/>
<circle cx="235" cy="489" r="1" fill="#343D56" fill-opacity="0.3"/>
<circle cx="539" cy="76" r="1" fill="#343D56" fill-opacity="0.3"/>
<circle cx="539" cy="98" r="1" fill="#343D56" fill-opacity="0.3"/>
<circle cx="561" cy="76" r="1" fill="#343D56" fill-opacity="0.3"/>
<circle cx="561" cy="98" r="1" fill="#343D56" fill-opacity="0.3"/>
<circle cx="539" cy="164" r="1" fill="#343D56" fill-opacity="0.3"/>
<circle cx="539" cy="186" r="1" fill="#343D56" fill-opacity="0.3"/>
<circle cx="561" cy="164" r="1" fill="#343D56" fill-opacity="0.3"/>
<circle cx="561" cy="186" r="1" fill="#343D56" fill-opacity="0.3"/>
<circle cx="628" cy="76" r="1" fill="#343D56" fill-opacity="0.3"/>
<circle cx="628" cy="98" r="1" fill="#343D56" fill-opacity="0.3"/>
<circle cx="650" cy="76" r="1" fill="#343D56" fill-opacity="0.3"/>
<circle cx="650" cy="98" r="1" fill="#343D56" fill-opacity="0.3"/>
<circle cx="628" cy="164" r="1" fill="#343D56" fill-opacity="0.3"/>
<circle cx="628" cy="186" r="1" fill="#343D56" fill-opacity="0.3"/>
<circle cx="650" cy="164" r="1" fill="#343D56" fill-opacity="0.3"/>
<circle cx="650" cy="186" r="1" fill="#343D56" fill-opacity="0.3"/>
<circle cx="540" cy="120" r="1" fill="#343D56" fill-opacity="0.3"/>
<circle cx="540" cy="142" r="1" fill="#343D56" fill-opacity="0.3"/>
<circle cx="562" cy="120" r="1" fill="#343D56" fill-opacity="0.3"/>
<circle cx="562" cy="142" r="1" fill="#343D56" fill-opacity="0.3"/>
<circle cx="540" cy="208" r="1" fill="#343D56" fill-opacity="0.3"/>
<circle cx="540" cy="230" r="1" fill="#343D56" fill-opacity="0.3"/>
<circle cx="562" cy="208" r="1" fill="#343D56" fill-opacity="0.3"/>
<circle cx="562" cy="230" r="1" fill="#343D56" fill-opacity="0.3"/>
<circle cx="629" cy="120" r="1" fill="#343D56" fill-opacity="0.3"/>
<circle cx="629" cy="142" r="1" fill="#343D56" fill-opacity="0.3"/>
<circle cx="651" cy="120" r="1" fill="#343D56" fill-opacity="0.3"/>
<circle cx="651" cy="142" r="1" fill="#343D56" fill-opacity="0.3"/>
<circle cx="629" cy="208" r="1" fill="#343D56" fill-opacity="0.3"/>
<circle cx="629" cy="230" r="1" fill="#343D56" fill-opacity="0.3"/>
<circle cx="651" cy="208" r="1" fill="#343D56" fill-opacity="0.3"/>
<circle cx="651" cy="230" r="1" fill="#343D56" fill-opacity="0.3"/>
<circle cx="583" cy="76" r="1" fill="#343D56" fill-opacity="0.3"/>
<circle cx="583" cy="98" r="1" fill="#343D56" fill-opacity="0.3"/>
<circle cx="605" cy="76" r="1" fill="#343D56" fill-opacity="0.3"/>
<circle cx="605" cy="98" r="1" fill="#343D56" fill-opacity="0.3"/>
<circle cx="583" cy="164" r="1" fill="#343D56" fill-opacity="0.3"/>
<circle cx="583" cy="186" r="1" fill="#343D56" fill-opacity="0.3"/>
<circle cx="605" cy="164" r="1" fill="#343D56" fill-opacity="0.3"/>
<circle cx="605" cy="186" r="1" fill="#343D56" fill-opacity="0.3"/>
<circle cx="672" cy="76" r="1" fill="#343D56" fill-opacity="0.3"/>
<circle cx="672" cy="98" r="1" fill="#343D56" fill-opacity="0.3"/>
<circle cx="694" cy="76" r="1" fill="#343D56" fill-opacity="0.3"/>
<circle cx="694" cy="98" r="1" fill="#343D56" fill-opacity="0.3"/>
<circle cx="672" cy="164" r="1" fill="#343D56" fill-opacity="0.3"/>
<circle cx="672" cy="186" r="1" fill="#343D56" fill-opacity="0.3"/>
<circle cx="694" cy="164" r="1" fill="#343D56" fill-opacity="0.3"/>
<circle cx="694" cy="186" r="1" fill="#343D56" fill-opacity="0.3"/>
<circle cx="584" cy="120" r="1" fill="#343D56" fill-opacity="0.3"/>
<circle cx="584" cy="142" r="1" fill="#343D56" fill-opacity="0.3"/>
<circle cx="606" cy="120" r="1" fill="#343D56" fill-opacity="0.3"/>
<circle cx="606" cy="142" r="1" fill="#343D56" fill-opacity="0.3"/>
<circle cx="584" cy="208" r="1" fill="#343D56" fill-opacity="0.3"/>
<circle cx="584" cy="230" r="1" fill="#343D56" fill-opacity="0.3"/>
<circle cx="606" cy="208" r="1" fill="#343D56" fill-opacity="0.3"/>
<circle cx="606" cy="230" r="1" fill="#343D56" fill-opacity="0.3"/>
<circle cx="673" cy="120" r="1" fill="#343D56" fill-opacity="0.3"/>
<circle cx="673" cy="142" r="1" fill="#343D56" fill-opacity="0.3"/>
<circle cx="695" cy="120" r="1" fill="#343D56" fill-opacity="0.3"/>
<circle cx="695" cy="142" r="1" fill="#343D56" fill-opacity="0.3"/>
<circle cx="673" cy="208" r="1" fill="#343D56" fill-opacity="0.3"/>
<circle cx="673" cy="230" r="1" fill="#343D56" fill-opacity="0.3"/>
<circle cx="695" cy="208" r="1" fill="#343D56" fill-opacity="0.3"/>
<circle cx="695" cy="230" r="1" fill="#343D56" fill-opacity="0.3"/>
<g filter="url(#filter0_dd)">
<rect x="136.857" y="147" width="523.143" height="359.281" rx="11" fill="#F4F9FF" stroke="white" stroke-width="2"/>
<path d="M137 158.001C137 152.478 141.477 148.001 147 148.001H300.714V505.282H147C141.477 505.282 137 500.805 137 495.282V158.001Z" fill="#343D56"/>
<ellipse cx="218.499" cy="199.757" rx="13.2857" ry="12.5087" fill="url(#paint0_linear)" fill-opacity="0.1"/>
<rect x="168.213" y="275.728" width="16.0872" height="16.0872" rx="2" fill="url(#paint1_linear)" fill-opacity="0.1"/>
<rect x="189.126" y="280.554" width="80.4359" height="6.43487" rx="3.21744" fill="url(#paint2_linear)" fill-opacity="0.1"/>
<rect x="168.213" y="246.771" width="16.0872" height="16.0872" rx="2" fill="url(#paint3_linear)" fill-opacity="0.1"/>
<rect x="189.126" y="251.597" width="80.4359" height="6.43487" rx="3.21744" fill="url(#paint4_linear)" fill-opacity="0.1"/>
<rect x="168.213" y="304.685" width="16.0872" height="16.0872" rx="2" fill="url(#paint5_linear)" fill-opacity="0.1"/>
<rect x="189.126" y="309.511" width="80.4359" height="6.43487" rx="3.21744" fill="url(#paint6_linear)" fill-opacity="0.1"/>
<rect x="168.213" y="333.642" width="16.0872" height="16.0872" rx="2" fill="url(#paint7_linear)" fill-opacity="0.1"/>
<rect x="189.126" y="338.468" width="80.4359" height="6.43487" rx="3.21744" fill="url(#paint8_linear)" fill-opacity="0.1"/>
<rect x="168.213" y="362.598" width="16.0872" height="16.0872" rx="2" fill="url(#paint9_linear)" fill-opacity="0.1"/>
<rect x="189.126" y="367.425" width="80.4359" height="6.43487" rx="3.21744" fill="url(#paint10_linear)" fill-opacity="0.1"/>
</g>
<path fill-rule="evenodd" clip-rule="evenodd" d="M279.423 391.515C283.337 393.876 287.183 395.017 288.989 394.551C293.516 393.384 293.932 376.811 290.429 370.277C286.926 363.743 268.919 360.896 268.011 373.841C267.696 378.334 269.582 382.343 272.367 385.615L267.373 408.91H281.88L279.423 391.515Z" fill="#B28B67"/>
<path fill-rule="evenodd" clip-rule="evenodd" d="M284.699 363.161C282.717 362.556 279.839 362.351 278.628 362.49C279.317 360.839 279.59 358.999 279.367 357.208C279.151 355.468 278.374 353.986 277.655 352.433C277.324 351.718 276.948 351.006 276.389 350.458C275.819 349.901 275.097 349.532 274.34 349.357C273.565 349.177 272.755 349.192 271.98 349.355C271.636 349.427 271.329 349.584 270.992 349.672C270.647 349.761 270.48 349.545 270.23 349.328C269.627 348.806 268.743 348.547 267.981 348.455C267.125 348.352 266.237 348.481 265.421 348.762C264.627 349.036 263.863 349.481 263.289 350.13C263.033 350.418 262.801 350.747 262.65 351.109C262.589 351.258 262.578 351.346 262.43 351.401C262.293 351.451 262.132 351.453 261.991 351.501C260.621 351.965 259.45 353.024 258.812 354.384C258.44 355.177 258.264 356.573 258.312 358.139C258.361 359.704 259.773 363.789 261.094 365.279C262.273 366.609 264.007 367.486 265.679 367.87C264.569 369.14 263.83 370.727 263.284 372.341C262.69 374.095 262.322 375.916 262.187 377.772C262.058 379.536 262.046 381.401 262.459 383.127C262.846 384.741 263.672 386.065 265.052 386.905C265.684 387.289 266.364 387.578 267.048 387.843C267.722 388.103 268.398 388.356 269.104 388.502C270.44 388.779 271.98 388.731 273.009 387.667C273.38 387.283 273.788 386.801 274.059 386.332C274.156 386.164 274.215 386.053 274.097 385.889C273.955 385.691 273.726 385.54 273.544 385.386C272.506 384.505 271.864 383.33 271.702 381.934C271.538 380.517 271.918 378.688 273.295 378.07C274.994 377.307 276.865 378.183 278.376 378.999C279.018 376.732 280.336 374.691 282.402 373.651C284.688 372.501 287.311 372.366 289.66 371.379C290.272 371.122 290.896 370.83 291.347 370.306C291.535 370.087 291.756 369.803 291.831 369.513C291.93 369.132 291.685 368.813 291.495 368.517C290.491 366.944 286.681 363.766 284.699 363.161Z" fill="#242222"/>
<g filter="url(#filter1_dd)">
<rect width="114.021" height="96.1806" rx="16" transform="matrix(-1 0 0 1 336.598 496.476)" fill="#F4F9FF"/>
<rect x="1" y="-1" width="116.021" height="98.1806" rx="17" transform="matrix(-1 0 0 1 338.598 496.476)" stroke="white" stroke-width="2"/>
</g>
<path fill-rule="evenodd" clip-rule="evenodd" d="M338.526 518.142C340.774 526.023 346.375 540.96 354.12 558.114L361.48 555.965C355.041 516.493 349.683 490.36 346.613 482.406C344.585 477.151 329.243 477.767 331.008 488.341C331.748 492.775 334.676 504.649 338.526 518.142ZM308.276 490.185C296.274 492.673 271.389 501.469 264.283 504.28C259.817 506.047 262.696 512.038 266.506 511.514C267.151 511.425 269.434 511.169 272.839 510.788C283.779 509.563 306.308 507.041 323.394 504.58C332.391 503.284 327.552 486.42 318.21 488.205C315.067 488.805 311.725 489.47 308.276 490.185Z" fill="#B28B67"/>
<path fill-rule="evenodd" clip-rule="evenodd" d="M347.084 477.952C345.857 473.945 290.078 459.721 290.078 459.721H285.507V463.984L323.944 483.564C323.892 484.196 323.924 484.864 324.048 485.568C323.77 500.084 329.978 510.928 336.125 521.664C340.144 528.685 344.137 535.66 346.273 543.585L360.395 541.477C359.983 540.424 359.333 535.677 358.444 529.187C356.201 512.822 352.44 485.374 347.163 478.112C347.145 478.087 347.126 478.062 347.107 478.037C347.1 478.008 347.092 477.98 347.084 477.952Z" fill="#1F28CF"/>
<path fill-rule="evenodd" clip-rule="evenodd" d="M288.7 495.193C285.184 494.488 281.945 493.86 279.174 493.373C261.273 490.231 256.053 480.642 259.139 459.721H292.121C297.508 461.27 325.507 473.02 340.034 479.269C349.649 483.406 346.618 498.316 341.174 502.197C341.144 502.435 341.046 502.597 340.871 502.669C320.228 511.231 302.624 510.592 291.32 510.182C286.586 510.01 282.956 509.878 280.671 510.48L277.091 499.178L288.7 495.193Z" fill="#2B44FF"/>
<path fill-rule="evenodd" clip-rule="evenodd" d="M268.103 504.553C268.015 503.385 267.032 502.444 265.872 502.596C264.705 502.749 263.358 502.991 262.626 503.349C261.156 504.066 258.575 505.932 258.575 505.932C259.407 507.638 273.521 536.597 273.521 536.597C273.521 536.597 278.052 535.865 277.112 533.136C276.172 530.407 275.595 528.58 275.595 528.58L275.012 511.634C274.993 511.071 274.513 510.635 273.951 510.671L271.689 510.813C271.689 510.813 269.415 508.972 268.689 507.481C268.346 506.777 268.181 505.599 268.103 504.553Z" fill="#80F0D8"/>
<path fill-rule="evenodd" clip-rule="evenodd" d="M353.066 554.591C351.978 554.158 350.7 554.629 350.328 555.74C349.954 556.856 349.581 558.173 349.581 558.988C349.581 560.625 350.126 563.764 350.126 563.764C352.023 563.764 384.219 563.764 384.219 563.764C384.219 563.764 385.548 559.367 382.685 559.017C379.822 558.666 377.928 558.383 377.928 558.383L362.454 551.48C361.939 551.25 361.336 551.491 361.122 552.012L360.258 554.109C360.258 554.109 357.607 555.346 355.95 555.346C355.168 555.346 354.04 554.979 353.066 554.591Z" fill="#80F0D8"/>
<path fill-rule="evenodd" clip-rule="evenodd" d="M336.693 465.55L317.412 451.381L313.149 461.925L332.243 469.848C337.643 476.196 340.663 478.842 341.302 477.787C341.841 476.897 341.42 476.064 341.032 475.297C340.73 474.699 340.447 474.141 340.655 473.627C341.129 472.454 344.757 472.578 348.194 472.842C351.631 473.107 350.63 471.576 349.801 470.82C346.292 468.719 341.923 466.962 336.693 465.55ZM235.576 490.516C237.348 486.919 243.38 451.87 243.38 451.87L256.012 451.919C256.012 451.919 244.312 489.714 243.38 492.026C242.169 495.03 244.226 499.395 245.621 502.355C245.837 502.812 246.037 503.237 246.207 503.617C244.271 504.484 243.341 503.436 242.36 502.331C241.253 501.084 240.081 499.764 237.323 501.048C236.257 501.544 235.249 502.13 234.264 502.703C230.861 504.683 227.734 506.502 223.481 503.876C222.807 503.459 222.068 501.892 223.853 500.667C228.301 497.615 234.71 492.274 235.576 490.516Z" fill="#B28B67"/>
<path fill-rule="evenodd" clip-rule="evenodd" d="M279.278 398.828L284.505 397.93C303.898 414.695 311.864 446.903 335.636 463.965L329.914 471.062C288.674 465.952 278.453 426.667 279.278 398.828Z" fill="#E87613"/>
<path fill-rule="evenodd" clip-rule="evenodd" d="M256.492 464.56C256.492 464.56 287.929 464.56 302.741 464.56C304.855 464.56 304.456 461.507 304.151 459.966C300.625 442.181 286.862 423.011 286.862 397.695L273.521 395.602C262.487 413.361 258.671 435.226 256.492 464.56Z" fill="#DDE3E9"/>
<path fill-rule="evenodd" clip-rule="evenodd" d="M258.264 412.849C255.837 412.676 253.646 411.659 252.261 409.159C247.385 400.354 249.146 395.507 254.357 393.913C257.222 393.037 259.917 393.635 263.143 394.351C265.783 394.937 268.78 395.602 272.517 395.602C272.879 395.602 273.208 395.626 273.507 395.673L277.934 395.926C277.934 395.926 295.907 456.882 287.848 477.263H251.292C249.213 482.259 247.175 486.618 245.254 489.966H235.336C234.268 455.438 247.332 428.869 258.264 412.849Z" fill="#FF9B21"/>
<path fill-rule="evenodd" clip-rule="evenodd" d="M251.292 477.263C254.019 470.709 256.816 463.058 259.507 455.157C260.509 463.858 262.177 472.597 264.955 477.263H251.292Z" fill="black" fill-opacity="0.1"/>
<g filter="url(#filter2_dd)">
<rect x="52" y="52" width="150" height="200" rx="10" fill="#F4F9FF"/>
<rect x="51" y="51" width="152" height="202" rx="11" stroke="white" stroke-width="2"/>
</g>
<rect x="63" y="63" width="128" height="78" rx="9" fill="#80F0D8" fill-opacity="0.3" stroke="#80F0D8" stroke-width="2"/>
<rect x="68" y="159" width="68" height="6" rx="3" fill="#242222" fill-opacity="0.1"/>
<rect x="68" y="231" width="40" height="6" rx="3" fill="#5173FC"/>
<rect x="118" y="231" width="40" height="6" rx="3" fill="#80F0D8"/>
<rect x="68" y="173" width="100" height="6" rx="3" fill="#242222" fill-opacity="0.1"/>
<g filter="url(#filter3_dd)">
<g clip-path="url(#clip0)">
<rect x="485" y="207" width="261" height="159" rx="10" fill="white"/>
<rect x="485" y="207" width="360" height="220" fill="#F4F9FF"/>
<path d="M544 220.966C506.4 183.366 456.333 287.966 436 344.966V421.966L680 454.966C763.333 447.966 927.8 413.166 919 329.966C910.2 246.766 873 235.966 838 229.966C783 245.966 748.8 298.766 704 329.966C648 368.966 591 267.966 544 220.966Z" fill="url(#paint11_linear)"/>
<path d="M458.476 296.378C421.884 280.817 387.579 362.357 375 405.072L471.055 456.559L777.515 468C806.484 447.024 866.937 397.749 877 368.459C866.708 322.312 839.264 243.289 811.82 296.378C784.376 349.466 738.636 361.594 703.187 328.414C671.169 289.513 668.882 261.29 641.437 250.612C624.971 244.204 596.841 289.894 591.123 305.531C576.257 336.423 567 368.459 525.943 361.594C494.182 356.284 504.216 315.828 458.476 296.378Z" fill="url(#paint12_linear)"/>
<path d="M546 304.535C514 290.935 484 362.201 473 399.535L557 444.535L825 454.535C850.333 436.201 903.2 393.135 912 367.535C903 327.201 879 258.135 855 304.535C831 350.935 791 361.535 760 332.535C732 298.535 730 273.868 706 264.535C691.6 258.935 667 298.868 662 312.535C649 339.535 633 358.535 605 361.535C577 364.535 586 321.535 546 304.535Z" fill="url(#paint13_linear)"/>
</g>
<rect x="484" y="206" width="263" height="161" rx="11" stroke="white" stroke-width="2"/>
</g>
<g filter="url(#filter4_dd)">
<rect x="416" y="405" width="150" height="200" rx="10" fill="#F4F9FF"/>
<rect x="415" y="404" width="152" height="202" rx="11" stroke="white" stroke-width="2"/>
</g>
<rect x="432" y="564" width="118" height="25" rx="4" fill="#5173FC"/>
<rect x="432" y="425" width="68" height="6" rx="3" fill="#343D56"/>
<rect x="432" y="505" width="40" height="6" rx="3" fill="#242222" fill-opacity="0.1"/>
<rect x="459" y="521" width="25" height="4" rx="2" fill="#5173FC" fill-opacity="0.3"/>
<rect x="459" y="530" width="50" height="4" rx="2" fill="#5173FC" fill-opacity="0.3"/>
<rect x="435" y="516" width="20" height="20" rx="4" fill="#80F0D8"/>
<rect x="432.5" y="453.5" width="117" height="29" rx="3.5" fill="#80F0D8" fill-opacity="0.3" stroke="#80F0D8"/>
<rect x="461" y="462" width="25" height="4" rx="2" fill="white"/>
<rect x="461" y="471" width="50" height="4" rx="2" fill="white"/>
<rect x="437" y="458" width="20" height="20" rx="4" fill="#80F0D8"/>
<rect x="313.5" y="223.5" width="117" height="29" rx="3.5" fill="#5173FC" fill-opacity="0.3" stroke="#5173FC"/>
<rect x="342" y="232" width="25" height="4" rx="2" fill="white"/>
<rect x="342" y="241" width="50" height="4" rx="2" fill="white"/>
<rect x="318" y="228" width="20" height="20" rx="4" fill="#5173FC"/>
<rect x="313.5" y="273.5" width="117" height="29" rx="3.5" fill="#80F0D8" fill-opacity="0.3" stroke="#80F0D8"/>
<rect x="342" y="282" width="25" height="4" rx="2" fill="white"/>
<rect x="342" y="291" width="50" height="4" rx="2" fill="white"/>
<rect x="318" y="278" width="20" height="20" rx="4" fill="#80F0D8"/>
<rect x="313.5" y="324.5" width="117" height="29" rx="3.5" fill="#FF9B21" fill-opacity="0.3" stroke="#FF9F2A"/>
<rect x="342" y="333" width="25" height="4" rx="2" fill="white"/>
<rect x="342" y="342" width="50" height="4" rx="2" fill="white"/>
<rect x="318" y="329" width="20" height="20" rx="4" fill="#FF9B21"/>
<defs>
<filter id="filter0_dd" x="85.857" y="96" width="685.143" height="521.281" filterUnits="userSpaceOnUse" color-interpolation-filters="sRGB">
<feFlood flood-opacity="0" result="BackgroundImageFix"/>
<feColorMatrix in="SourceAlpha" type="matrix" values="0 0 0 0 0 0 0 0 0 0 0 0 0 0 0 0 0 0 127 0"/>
<feOffset dx="2" dy="8"/>
<feGaussianBlur stdDeviation="8"/>
<feColorMatrix type="matrix" values="0 0 0 0 0.203922 0 0 0 0 0.239216 0 0 0 0 0.337255 0 0 0 0.1 0"/>
<feBlend mode="normal" in2="BackgroundImageFix" result="effect1_dropShadow"/>
<feColorMatrix in="SourceAlpha" type="matrix" values="0 0 0 0 0 0 0 0 0 0 0 0 0 0 0 0 0 0 127 0"/>
<feOffset dx="30" dy="30"/>
<feGaussianBlur stdDeviation="40"/>
<feColorMatrix type="matrix" values="0 0 0 0 0.956863 0 0 0 0 0.976471 0 0 0 0 1 0 0 0 0.1 0"/>
<feBlend mode="normal" in2="effect1_dropShadow" result="effect2_dropShadow"/>
<feBlend mode="normal" in="SourceGraphic" in2="effect2_dropShadow" result="shape"/>
</filter>
<filter id="filter1_dd" x="170.577" y="444.476" width="278.021" height="260.181" filterUnits="userSpaceOnUse" color-interpolation-filters="sRGB">
<feFlood flood-opacity="0" result="BackgroundImageFix"/>
<feColorMatrix in="SourceAlpha" type="matrix" values="0 0 0 0 0 0 0 0 0 0 0 0 0 0 0 0 0 0 127 0"/>
<feOffset dx="2" dy="8"/>
<feGaussianBlur stdDeviation="8"/>
<feColorMatrix type="matrix" values="0 0 0 0 0.203922 0 0 0 0 0.239216 0 0 0 0 0.337255 0 0 0 0.1 0"/>
<feBlend mode="normal" in2="BackgroundImageFix" result="effect1_dropShadow"/>
<feColorMatrix in="SourceAlpha" type="matrix" values="0 0 0 0 0 0 0 0 0 0 0 0 0 0 0 0 0 0 127 0"/>
<feOffset dx="30" dy="30"/>
<feGaussianBlur stdDeviation="40"/>
<feColorMatrix type="matrix" values="0 0 0 0 0.956863 0 0 0 0 0.976471 0 0 0 0 1 0 0 0 0.1 0"/>
<feBlend mode="normal" in2="effect1_dropShadow" result="effect2_dropShadow"/>
<feBlend mode="normal" in="SourceGraphic" in2="effect2_dropShadow" result="shape"/>
</filter>
<filter id="filter2_dd" x="0" y="0" width="314" height="364" filterUnits="userSpaceOnUse" color-interpolation-filters="sRGB">
<feFlood flood-opacity="0" result="BackgroundImageFix"/>
<feColorMatrix in="SourceAlpha" type="matrix" values="0 0 0 0 0 0 0 0 0 0 0 0 0 0 0 0 0 0 127 0"/>
<feOffset dx="2" dy="8"/>
<feGaussianBlur stdDeviation="8"/>
<feColorMatrix type="matrix" values="0 0 0 0 0.203922 0 0 0 0 0.239216 0 0 0 0 0.337255 0 0 0 0.1 0"/>
<feBlend mode="normal" in2="BackgroundImageFix" result="effect1_dropShadow"/>
<feColorMatrix in="SourceAlpha" type="matrix" values="0 0 0 0 0 0 0 0 0 0 0 0 0 0 0 0 0 0 127 0"/>
<feOffset dx="30" dy="30"/>
<feGaussianBlur stdDeviation="40"/>
<feColorMatrix type="matrix" values="0 0 0 0 0.956863 0 0 0 0 0.976471 0 0 0 0 1 0 0 0 0.1 0"/>
<feBlend mode="normal" in2="effect1_dropShadow" result="effect2_dropShadow"/>
<feBlend mode="normal" in="SourceGraphic" in2="effect2_dropShadow" result="shape"/>
</filter>
<filter id="filter3_dd" x="433" y="155" width="425" height="323" filterUnits="userSpaceOnUse" color-interpolation-filters="sRGB">
<feFlood flood-opacity="0" result="BackgroundImageFix"/>
<feColorMatrix in="SourceAlpha" type="matrix" values="0 0 0 0 0 0 0 0 0 0 0 0 0 0 0 0 0 0 127 0"/>
<feOffset dx="2" dy="8"/>
<feGaussianBlur stdDeviation="8"/>
<feColorMatrix type="matrix" values="0 0 0 0 0.203922 0 0 0 0 0.239216 0 0 0 0 0.337255 0 0 0 0.1 0"/>
<feBlend mode="normal" in2="BackgroundImageFix" result="effect1_dropShadow"/>
<feColorMatrix in="SourceAlpha" type="matrix" values="0 0 0 0 0 0 0 0 0 0 0 0 0 0 0 0 0 0 127 0"/>
<feOffset dx="30" dy="30"/>
<feGaussianBlur stdDeviation="40"/>
<feColorMatrix type="matrix" values="0 0 0 0 0.956863 0 0 0 0 0.976471 0 0 0 0 1 0 0 0 0.1 0"/>
<feBlend mode="normal" in2="effect1_dropShadow" result="effect2_dropShadow"/>
<feBlend mode="normal" in="SourceGraphic" in2="effect2_dropShadow" result="shape"/>
</filter>
<filter id="filter4_dd" x="364" y="353" width="314" height="364" filterUnits="userSpaceOnUse" color-interpolation-filters="sRGB">
<feFlood flood-opacity="0" result="BackgroundImageFix"/>
<feColorMatrix in="SourceAlpha" type="matrix" values="0 0 0 0 0 0 0 0 0 0 0 0 0 0 0 0 0 0 127 0"/>
<feOffset dx="2" dy="8"/>
<feGaussianBlur stdDeviation="8"/>
<feColorMatrix type="matrix" values="0 0 0 0 0.203922 0 0 0 0 0.239216 0 0 0 0 0.337255 0 0 0 0.1 0"/>
<feBlend mode="normal" in2="BackgroundImageFix" result="effect1_dropShadow"/>
<feColorMatrix in="SourceAlpha" type="matrix" values="0 0 0 0 0 0 0 0 0 0 0 0 0 0 0 0 0 0 127 0"/>
<feOffset dx="30" dy="30"/>
<feGaussianBlur stdDeviation="40"/>
<feColorMatrix type="matrix" values="0 0 0 0 0.956863 0 0 0 0 0.976471 0 0 0 0 1 0 0 0 0.1 0"/>
<feBlend mode="normal" in2="effect1_dropShadow" result="effect2_dropShadow"/>
<feBlend mode="normal" in="SourceGraphic" in2="effect2_dropShadow" result="shape"/>
</filter>
<linearGradient id="paint0_linear" x1="218.499" y1="187.248" x2="218.499" y2="212.266" gradientUnits="userSpaceOnUse">
<stop stop-color="#F4F9FF"/>
<stop offset="1" stop-color="#F4F9FF" stop-opacity="0.5"/>
</linearGradient>
<linearGradient id="paint1_linear" x1="176.256" y1="275.728" x2="176.256" y2="291.815" gradientUnits="userSpaceOnUse">
<stop stop-color="#F4F9FF"/>
<stop offset="1" stop-color="#F4F9FF"/>
</linearGradient>
<linearGradient id="paint2_linear" x1="189.126" y1="286.989" x2="269.562" y2="286.989" gradientUnits="userSpaceOnUse">
<stop stop-color="#F4F9FF"/>
<stop offset="1" stop-color="#F4F9FF" stop-opacity="0.5"/>
</linearGradient>
<linearGradient id="paint3_linear" x1="176.256" y1="246.771" x2="176.256" y2="262.858" gradientUnits="userSpaceOnUse">
<stop stop-color="#F4F9FF"/>
<stop offset="1" stop-color="#F4F9FF"/>
</linearGradient>
<linearGradient id="paint4_linear" x1="189.126" y1="258.032" x2="269.562" y2="258.032" gradientUnits="userSpaceOnUse">
<stop stop-color="#F4F9FF"/>
<stop offset="1" stop-color="#F4F9FF" stop-opacity="0.5"/>
</linearGradient>
<linearGradient id="paint5_linear" x1="176.256" y1="304.685" x2="176.256" y2="320.772" gradientUnits="userSpaceOnUse">
<stop stop-color="#F4F9FF"/>
<stop offset="1" stop-color="#F4F9FF"/>
</linearGradient>
<linearGradient id="paint6_linear" x1="189.126" y1="315.946" x2="269.562" y2="315.946" gradientUnits="userSpaceOnUse">
<stop stop-color="#F4F9FF"/>
<stop offset="1" stop-color="#F4F9FF" stop-opacity="0.5"/>
</linearGradient>
<linearGradient id="paint7_linear" x1="176.256" y1="333.642" x2="176.256" y2="349.729" gradientUnits="userSpaceOnUse">
<stop stop-color="#F4F9FF"/>
<stop offset="1" stop-color="#F4F9FF"/>
</linearGradient>
<linearGradient id="paint8_linear" x1="189.126" y1="344.903" x2="269.562" y2="344.903" gradientUnits="userSpaceOnUse">
<stop stop-color="#F4F9FF"/>
<stop offset="1" stop-color="#F4F9FF" stop-opacity="0.5"/>
</linearGradient>
<linearGradient id="paint9_linear" x1="176.256" y1="362.598" x2="176.256" y2="378.686" gradientUnits="userSpaceOnUse">
<stop stop-color="#F4F9FF"/>
<stop offset="1" stop-color="#F4F9FF"/>
</linearGradient>
<linearGradient id="paint10_linear" x1="189.126" y1="373.859" x2="269.562" y2="373.859" gradientUnits="userSpaceOnUse">
<stop stop-color="#F4F9FF"/>
<stop offset="1" stop-color="#F4F9FF" stop-opacity="0.5"/>
</linearGradient>
<linearGradient id="paint11_linear" x1="670" y1="213" x2="693" y2="348" gradientUnits="userSpaceOnUse">
<stop stop-color="#FF9B21"/>
<stop offset="1" stop-color="#FF9B21" stop-opacity="0"/>
</linearGradient>
<linearGradient id="paint12_linear" x1="659" y1="238" x2="557" y2="372" gradientUnits="userSpaceOnUse">
<stop stop-color="#5173FC"/>
<stop offset="1" stop-color="#5173FC" stop-opacity="0"/>
</linearGradient>
<linearGradient id="paint13_linear" x1="692.5" y1="264" x2="693" y2="653" gradientUnits="userSpaceOnUse">
<stop stop-color="#80F0D8"/>
<stop offset="1" stop-color="#80F0D8" stop-opacity="0"/>
</linearGradient>
<clipPath id="clip0">
<rect x="485" y="207" width="261" height="159" rx="10" fill="white"/>
</clipPath>
</defs>
</svg>
