<svg width="686" height="726" viewBox="0 0 686 726" fill="none" xmlns="http://www.w3.org/2000/svg">
<circle cx="153" cy="433" r="1" fill="#343D56" fill-opacity="0.3"/>
<circle cx="153" cy="455" r="1" fill="#343D56" fill-opacity="0.3"/>
<circle cx="175" cy="433" r="1" fill="#343D56" fill-opacity="0.3"/>
<circle cx="175" cy="455" r="1" fill="#343D56" fill-opacity="0.3"/>
<circle cx="153" cy="521" r="1" fill="#343D56" fill-opacity="0.3"/>
<circle cx="153" cy="543" r="1" fill="#343D56" fill-opacity="0.3"/>
<circle cx="175" cy="521" r="1" fill="#343D56" fill-opacity="0.3"/>
<circle cx="175" cy="543" r="1" fill="#343D56" fill-opacity="0.3"/>
<circle cx="242" cy="433" r="1" fill="#343D56" fill-opacity="0.3"/>
<circle cx="242" cy="455" r="1" fill="#343D56" fill-opacity="0.3"/>
<circle cx="264" cy="433" r="1" fill="#343D56" fill-opacity="0.3"/>
<circle cx="264" cy="455" r="1" fill="#343D56" fill-opacity="0.3"/>
<circle cx="242" cy="521" r="1" fill="#343D56" fill-opacity="0.3"/>
<circle cx="242" cy="543" r="1" fill="#343D56" fill-opacity="0.3"/>
<circle cx="264" cy="521" r="1" fill="#343D56" fill-opacity="0.3"/>
<circle cx="264" cy="543" r="1" fill="#343D56" fill-opacity="0.3"/>
<circle cx="154" cy="477" r="1" fill="#343D56" fill-opacity="0.3"/>
<circle cx="154" cy="499" r="1" fill="#343D56" fill-opacity="0.3"/>
<circle cx="176" cy="477" r="1" fill="#343D56" fill-opacity="0.3"/>
<circle cx="176" cy="499" r="1" fill="#343D56" fill-opacity="0.3"/>
<circle cx="154" cy="565" r="1" fill="#343D56" fill-opacity="0.3"/>
<circle cx="154" cy="587" r="1" fill="#343D56" fill-opacity="0.3"/>
<circle cx="176" cy="565" r="1" fill="#343D56" fill-opacity="0.3"/>
<circle cx="176" cy="587" r="1" fill="#343D56" fill-opacity="0.3"/>
<circle cx="243" cy="477" r="1" fill="#343D56" fill-opacity="0.3"/>
<circle cx="243" cy="499" r="1" fill="#343D56" fill-opacity="0.3"/>
<circle cx="265" cy="477" r="1" fill="#343D56" fill-opacity="0.3"/>
<circle cx="265" cy="499" r="1" fill="#343D56" fill-opacity="0.3"/>
<circle cx="243" cy="565" r="1" fill="#343D56" fill-opacity="0.3"/>
<circle cx="243" cy="587" r="1" fill="#343D56" fill-opacity="0.3"/>
<circle cx="265" cy="565" r="1" fill="#343D56" fill-opacity="0.3"/>
<circle cx="265" cy="587" r="1" fill="#343D56" fill-opacity="0.3"/>
<circle cx="197" cy="433" r="1" fill="#343D56" fill-opacity="0.3"/>
<circle cx="197" cy="455" r="1" fill="#343D56" fill-opacity="0.3"/>
<circle cx="219" cy="433" r="1" fill="#343D56" fill-opacity="0.3"/>
<circle cx="219" cy="455" r="1" fill="#343D56" fill-opacity="0.3"/>
<circle cx="197" cy="521" r="1" fill="#343D56" fill-opacity="0.3"/>
<circle cx="197" cy="543" r="1" fill="#343D56" fill-opacity="0.3"/>
<circle cx="219" cy="521" r="1" fill="#343D56" fill-opacity="0.3"/>
<circle cx="219" cy="543" r="1" fill="#343D56" fill-opacity="0.3"/>
<circle cx="286" cy="433" r="1" fill="#343D56" fill-opacity="0.3"/>
<circle cx="286" cy="455" r="1" fill="#343D56" fill-opacity="0.3"/>
<circle cx="308" cy="433" r="1" fill="#343D56" fill-opacity="0.3"/>
<circle cx="308" cy="455" r="1" fill="#343D56" fill-opacity="0.3"/>
<circle cx="286" cy="521" r="1" fill="#343D56" fill-opacity="0.3"/>
<circle cx="286" cy="543" r="1" fill="#343D56" fill-opacity="0.3"/>
<circle cx="308" cy="521" r="1" fill="#343D56" fill-opacity="0.3"/>
<circle cx="308" cy="543" r="1" fill="#343D56" fill-opacity="0.3"/>
<circle cx="198" cy="477" r="1" fill="#343D56" fill-opacity="0.3"/>
<circle cx="198" cy="499" r="1" fill="#343D56" fill-opacity="0.3"/>
<circle cx="220" cy="477" r="1" fill="#343D56" fill-opacity="0.3"/>
<circle cx="220" cy="499" r="1" fill="#343D56" fill-opacity="0.3"/>
<circle cx="198" cy="565" r="1" fill="#343D56" fill-opacity="0.3"/>
<circle cx="198" cy="587" r="1" fill="#343D56" fill-opacity="0.3"/>
<circle cx="220" cy="565" r="1" fill="#343D56" fill-opacity="0.3"/>
<circle cx="220" cy="587" r="1" fill="#343D56" fill-opacity="0.3"/>
<circle cx="287" cy="477" r="1" fill="#343D56" fill-opacity="0.3"/>
<circle cx="287" cy="499" r="1" fill="#343D56" fill-opacity="0.3"/>
<circle cx="309" cy="477" r="1" fill="#343D56" fill-opacity="0.3"/>
<circle cx="309" cy="499" r="1" fill="#343D56" fill-opacity="0.3"/>
<circle cx="287" cy="565" r="1" fill="#343D56" fill-opacity="0.3"/>
<circle cx="287" cy="587" r="1" fill="#343D56" fill-opacity="0.3"/>
<circle cx="309" cy="565" r="1" fill="#343D56" fill-opacity="0.3"/>
<circle cx="309" cy="587" r="1" fill="#343D56" fill-opacity="0.3"/>
<g filter="url(#filter0_dd)">
<rect x="51.8569" y="51" width="523.143" height="359.281" rx="11" fill="#F4F9FF" stroke="white" stroke-width="2"/>
<path d="M52 62.0009C52 56.478 56.4772 52.0009 62 52.0009H215.714V409.282H62C56.4772 409.282 52 404.805 52 399.282V62.0009Z" fill="#343D56"/>
<ellipse cx="133.499" cy="103.757" rx="13.2857" ry="12.5087" fill="url(#paint0_linear)" fill-opacity="0.1"/>
<rect x="83.2126" y="179.728" width="16.0872" height="16.0872" rx="2" fill="url(#paint1_linear)" fill-opacity="0.1"/>
<rect x="104.126" y="184.554" width="80.4359" height="6.43487" rx="3.21744" fill="url(#paint2_linear)" fill-opacity="0.1"/>
<rect x="83.2126" y="150.771" width="16.0872" height="16.0872" rx="2" fill="url(#paint3_linear)" fill-opacity="0.1"/>
<rect x="104.126" y="155.597" width="80.4359" height="6.43487" rx="3.21744" fill="url(#paint4_linear)" fill-opacity="0.1"/>
<rect x="83.2126" y="208.685" width="16.0872" height="16.0872" rx="2" fill="url(#paint5_linear)" fill-opacity="0.1"/>
<rect x="104.126" y="213.511" width="80.4359" height="6.43487" rx="3.21744" fill="url(#paint6_linear)" fill-opacity="0.1"/>
<rect x="83.2126" y="237.642" width="16.0872" height="16.0872" rx="2" fill="url(#paint7_linear)" fill-opacity="0.1"/>
<rect x="104.126" y="242.468" width="80.4359" height="6.43487" rx="3.21744" fill="url(#paint8_linear)" fill-opacity="0.1"/>
<rect x="83.2126" y="266.598" width="16.0872" height="16.0872" rx="2" fill="url(#paint9_linear)" fill-opacity="0.1"/>
<rect x="104.126" y="271.425" width="80.4359" height="6.43487" rx="3.21744" fill="url(#paint10_linear)" fill-opacity="0.1"/>
</g>
<g clip-path="url(#clip0)">
<path fill-rule="evenodd" clip-rule="evenodd" d="M162.081 478C163.951 503.536 284.467 578.719 285.17 580.828C285.483 581.766 272.979 611.402 247.658 669.736L258.193 673.831C297.03 612.05 315.452 577.868 313.457 571.285C310.601 561.86 279.432 530.856 219.95 478.272L162.081 478Z" fill="#B28B67"/>
<path fill-rule="evenodd" clip-rule="evenodd" d="M250.43 656.562L267.63 662.824C303.899 621.896 318.115 588.127 315.523 570.921C313.795 559.451 282.733 528.498 222.339 478.063L160.847 478.063C162.945 537.201 274.648 581.053 276.142 583.573C277.636 586.093 262.933 610.775 250.43 656.562Z" fill="#343D56"/>
<path fill-rule="evenodd" clip-rule="evenodd" d="M243.782 667.724C241.632 670.239 240.294 672.219 239.768 673.665C239.128 675.423 238.487 678.096 237.845 681.682C239.885 682.425 258.214 689.097 292.834 701.699C295.982 697.495 296.086 694.644 293.144 693.147C290.202 691.649 287.769 690.378 285.843 689.333L264.431 668.635C264.019 668.236 263.362 668.248 262.964 668.66C262.957 668.667 262.95 668.674 262.944 668.681L259.851 672.068C256.517 672.361 253.959 672.183 252.177 671.534C250.729 671.007 248.942 669.694 246.817 667.596L246.817 667.596C246.001 666.791 244.688 666.8 243.882 667.615C243.848 667.651 243.814 667.687 243.782 667.724Z" fill="#80F0D8"/>
<path fill-rule="evenodd" clip-rule="evenodd" d="M175.937 478L122.251 606.905L69.4856 715.883H81.9347L218.136 478H175.937Z" fill="#B28B67"/>
<path fill-rule="evenodd" clip-rule="evenodd" d="M68.7411 710.852C67.5804 713.951 67 716.27 67 717.808C67 719.68 67.3117 722.41 67.935 726C70.1054 726 89.6111 726 126.452 726C127.973 720.972 127.095 718.258 123.819 717.857C120.542 717.456 117.821 717.094 115.654 716.771L88.4555 704.644C87.9321 704.411 87.3188 704.646 87.0854 705.169C87.0815 705.178 87.0776 705.187 87.0739 705.196L85.3256 709.438C82.2926 710.853 79.828 711.561 77.9318 711.561C76.3912 711.561 74.2635 710.938 71.5489 709.694L71.5489 709.694C70.5071 709.216 69.2755 709.673 68.7979 710.715C68.7774 710.76 68.7584 710.806 68.7411 710.852Z" fill="#80F0D8"/>
<path fill-rule="evenodd" clip-rule="evenodd" d="M74.2506 693.244L101.913 698.432C123.301 666.983 212.811 538.03 222.625 478H161.043C128.269 521.396 94.6379 661.275 74.2506 693.244Z" fill="#444E6A"/>
</g>
<g clip-path="url(#clip1)">
<path fill-rule="evenodd" clip-rule="evenodd" d="M188.262 354.49C183.654 349.081 180.536 342.453 181.057 335.025C182.558 313.625 212.349 318.333 218.143 329.134C223.938 339.935 223.25 367.333 215.76 369.263C212.774 370.033 206.411 368.147 199.935 364.244L204 393H180L188.262 354.49Z" fill="#B28B67"/>
<path fill-rule="evenodd" clip-rule="evenodd" d="M208.664 317.37C205.384 316.37 200.623 316.031 198.621 316.26C199.76 313.531 200.212 310.49 199.844 307.529C199.485 304.652 198.2 302.202 197.011 299.635C196.463 298.452 195.842 297.275 194.916 296.37C193.972 295.448 192.778 294.84 191.526 294.549C190.245 294.252 188.905 294.277 187.622 294.547C187.054 294.666 186.545 294.925 185.988 295.07C185.418 295.218 185.141 294.861 184.727 294.502C183.73 293.638 182.268 293.211 181.006 293.059C179.59 292.887 178.121 293.101 176.771 293.566C175.457 294.019 174.195 294.755 173.245 295.827C172.822 296.304 172.438 296.847 172.188 297.446C172.086 297.692 172.069 297.838 171.823 297.928C171.596 298.012 171.331 298.014 171.096 298.094C168.831 298.861 166.893 300.612 165.838 302.86C165.223 304.171 164.932 306.48 165.011 309.068C165.091 311.656 167.428 318.408 169.613 320.871C171.564 323.07 174.432 324.52 177.199 325.155C175.362 327.255 174.14 329.878 173.235 332.547C172.253 335.445 171.645 338.457 171.421 341.525C171.208 344.44 171.188 347.524 171.871 350.377C172.511 353.045 173.878 355.234 176.161 356.622C177.206 357.258 178.331 357.736 179.463 358.173C180.578 358.603 181.696 359.022 182.864 359.263C185.075 359.72 187.622 359.642 189.325 357.882C189.939 357.248 190.614 356.451 191.061 355.676C191.222 355.397 191.32 355.215 191.124 354.943C190.89 354.616 190.511 354.366 190.21 354.111C188.493 352.656 187.43 350.713 187.163 348.405C186.891 346.063 187.52 343.039 189.797 342.017C192.608 340.755 195.704 342.204 198.203 343.554C199.265 339.806 201.445 336.431 204.863 334.712C208.645 332.811 212.985 332.588 216.871 330.956C217.884 330.531 218.915 330.048 219.661 329.182C219.973 328.82 220.338 328.35 220.463 327.871C220.626 327.242 220.22 326.715 219.907 326.224C218.245 323.624 211.943 318.37 208.664 317.37Z" fill="#191847"/>
</g>
<path fill-rule="evenodd" clip-rule="evenodd" d="M261 452.617L297.235 436.704C303.582 430.379 309.711 425.572 315.623 422.282C317.39 421.719 320.41 421.549 317.188 426.255C313.966 430.961 310.789 436.056 312.076 437.705C313.364 439.355 317.093 437.534 318.566 440.216C319.549 442.004 313.262 444.143 299.707 446.633L272.57 467.439L261 452.617ZM114.508 457L135 461.066C114.392 499.471 103.34 519.826 101.845 522.13C98.4804 527.315 101.62 536.817 102.779 541.821C95.5044 543.515 98.3734 532.565 89.1672 534.851C80.7641 536.938 73.6394 542.293 65.8039 535.071C64.8406 534.183 64.1354 531.407 67.4198 529.984C75.6026 526.437 87.692 519.796 89.6523 517.218C92.3256 513.702 100.611 493.63 114.508 457Z" fill="#B28B67"/>
<path fill-rule="evenodd" clip-rule="evenodd" d="M190.695 380.332L199.342 378.849C218.176 397.119 225.862 441.012 238.414 446.822C250.281 452.316 267.104 447 287.1 439.822L293.223 453.505C275.055 473.161 236.349 489.767 220.66 480.287C195.576 465.13 189.786 410.994 190.695 380.332Z" fill="#E8772A"/>
<path fill-rule="evenodd" clip-rule="evenodd" d="M153 489C187.672 489 213.176 489 229.511 489C233.008 489 232.349 483.952 231.843 481.404C226.011 452.004 203.241 420.312 203.241 378.461L181.172 375C162.917 404.358 156.605 440.505 153 489Z" fill="#DDE3E9"/>
<path fill-rule="evenodd" clip-rule="evenodd" d="M145.369 459.233C129.771 487.368 116.661 507.623 106.037 520L90 516.859C100.331 452.791 130.247 405.504 179.748 375H180L188.486 375C208.299 442.537 213.761 487.537 204.872 510H136C137.09 493.563 140.583 476.181 145.369 459.233H145.369Z" fill="#ED992C"/>
<g filter="url(#filter1_dd)">
<rect x="333" y="293" width="150" height="200" rx="10" fill="#F4F9FF"/>
<rect x="332" y="292" width="152" height="202" rx="11" stroke="white" stroke-width="2"/>
</g>
<rect x="349" y="452" width="118" height="25" rx="4" fill="#5173FC"/>
<rect x="349" y="313" width="68" height="6" rx="3" fill="#343D56"/>
<rect x="349" y="393" width="40" height="6" rx="3" fill="#242222" fill-opacity="0.1"/>
<rect x="376" y="409" width="25" height="4" rx="2" fill="#5173FC" fill-opacity="0.3"/>
<rect x="376" y="418" width="50" height="4" rx="2" fill="#5173FC" fill-opacity="0.3"/>
<rect x="352" y="404" width="20" height="20" rx="4" fill="#80F0D8"/>
<rect x="349.5" y="341.5" width="117" height="29" rx="3.5" fill="#80F0D8" fill-opacity="0.3" stroke="#80F0D8"/>
<rect x="378" y="350" width="25" height="4" rx="2" fill="white"/>
<rect x="378" y="359" width="50" height="4" rx="2" fill="white"/>
<rect x="354" y="346" width="20" height="20" rx="4" fill="#80F0D8"/>
<g filter="url(#filter2_dd)">
<g clip-path="url(#clip2)">
<rect x="267" y="91" width="261" height="159" rx="10" fill="white"/>
<rect x="267" y="91" width="360" height="220" fill="#F4F9FF"/>
<path d="M326 104.966C288.4 67.3662 238.333 171.966 218 228.966V305.966L462 338.966C545.333 331.966 709.8 297.166 701 213.966C692.2 130.766 655 119.966 620 113.966C565 129.966 530.8 182.766 486 213.966C430 252.966 373 151.966 326 104.966Z" fill="url(#paint11_linear)"/>
<path d="M240.476 180.378C203.884 164.817 169.579 246.357 157 289.072L253.055 340.559L559.515 352C588.484 331.024 648.937 281.749 659 252.459C648.708 206.312 621.264 127.289 593.82 180.378C566.376 233.466 520.636 245.594 485.187 212.414C453.169 173.513 450.882 145.29 423.437 134.612C406.971 128.204 378.841 173.894 373.123 189.531C358.257 220.423 349 252.459 307.943 245.594C276.182 240.284 286.216 199.828 240.476 180.378Z" fill="url(#paint12_linear)"/>
<path d="M328 188.535C296 174.935 266 246.201 255 283.535L339 328.535L607 338.535C632.333 320.201 685.2 277.135 694 251.535C685 211.201 661 142.135 637 188.535C613 234.935 573 245.535 542 216.535C514 182.535 512 157.868 488 148.535C473.6 142.935 449 182.868 444 196.535C431 223.535 415 242.535 387 245.535C359 248.535 368 205.535 328 188.535Z" fill="url(#paint13_linear)"/>
</g>
<rect x="266" y="90" width="263" height="161" rx="11" stroke="white" stroke-width="2"/>
</g>
<circle cx="448" cy="14" r="1" fill="#343D56" fill-opacity="0.3"/>
<circle cx="448" cy="36" r="1" fill="#343D56" fill-opacity="0.3"/>
<circle cx="470" cy="14" r="1" fill="#343D56" fill-opacity="0.3"/>
<circle cx="470" cy="36" r="1" fill="#343D56" fill-opacity="0.3"/>
<circle cx="448" cy="102" r="1" fill="#343D56" fill-opacity="0.3"/>
<circle cx="448" cy="124" r="1" fill="#343D56" fill-opacity="0.3"/>
<circle cx="470" cy="102" r="1" fill="#343D56" fill-opacity="0.3"/>
<circle cx="470" cy="124" r="1" fill="#343D56" fill-opacity="0.3"/>
<circle cx="537" cy="14" r="1" fill="#343D56" fill-opacity="0.3"/>
<circle cx="537" cy="36" r="1" fill="#343D56" fill-opacity="0.3"/>
<circle cx="559" cy="14" r="1" fill="#343D56" fill-opacity="0.3"/>
<circle cx="559" cy="36" r="1" fill="#343D56" fill-opacity="0.3"/>
<circle cx="537" cy="102" r="1" fill="#343D56" fill-opacity="0.3"/>
<circle cx="537" cy="124" r="1" fill="#343D56" fill-opacity="0.3"/>
<circle cx="559" cy="102" r="1" fill="#343D56" fill-opacity="0.3"/>
<circle cx="559" cy="124" r="1" fill="#343D56" fill-opacity="0.3"/>
<circle cx="449" cy="58" r="1" fill="#343D56" fill-opacity="0.3"/>
<circle cx="449" cy="80" r="1" fill="#343D56" fill-opacity="0.3"/>
<circle cx="471" cy="58" r="1" fill="#343D56" fill-opacity="0.3"/>
<circle cx="471" cy="80" r="1" fill="#343D56" fill-opacity="0.3"/>
<circle cx="449" cy="146" r="1" fill="#343D56" fill-opacity="0.3"/>
<circle cx="449" cy="168" r="1" fill="#343D56" fill-opacity="0.3"/>
<circle cx="471" cy="146" r="1" fill="#343D56" fill-opacity="0.3"/>
<circle cx="471" cy="168" r="1" fill="#343D56" fill-opacity="0.3"/>
<circle cx="538" cy="58" r="1" fill="#343D56" fill-opacity="0.3"/>
<circle cx="538" cy="80" r="1" fill="#343D56" fill-opacity="0.3"/>
<circle cx="560" cy="58" r="1" fill="#343D56" fill-opacity="0.3"/>
<circle cx="560" cy="80" r="1" fill="#343D56" fill-opacity="0.3"/>
<circle cx="538" cy="146" r="1" fill="#343D56" fill-opacity="0.3"/>
<circle cx="538" cy="168" r="1" fill="#343D56" fill-opacity="0.3"/>
<circle cx="560" cy="146" r="1" fill="#343D56" fill-opacity="0.3"/>
<circle cx="560" cy="168" r="1" fill="#343D56" fill-opacity="0.3"/>
<circle cx="492" cy="14" r="1" fill="#343D56" fill-opacity="0.3"/>
<circle cx="492" cy="36" r="1" fill="#343D56" fill-opacity="0.3"/>
<circle cx="514" cy="14" r="1" fill="#343D56" fill-opacity="0.3"/>
<circle cx="514" cy="36" r="1" fill="#343D56" fill-opacity="0.3"/>
<circle cx="492" cy="102" r="1" fill="#343D56" fill-opacity="0.3"/>
<circle cx="492" cy="124" r="1" fill="#343D56" fill-opacity="0.3"/>
<circle cx="514" cy="102" r="1" fill="#343D56" fill-opacity="0.3"/>
<circle cx="514" cy="124" r="1" fill="#343D56" fill-opacity="0.3"/>
<circle cx="581" cy="14" r="1" fill="#343D56" fill-opacity="0.3"/>
<circle cx="581" cy="36" r="1" fill="#343D56" fill-opacity="0.3"/>
<circle cx="603" cy="14" r="1" fill="#343D56" fill-opacity="0.3"/>
<circle cx="603" cy="36" r="1" fill="#343D56" fill-opacity="0.3"/>
<circle cx="581" cy="102" r="1" fill="#343D56" fill-opacity="0.3"/>
<circle cx="581" cy="124" r="1" fill="#343D56" fill-opacity="0.3"/>
<circle cx="603" cy="102" r="1" fill="#343D56" fill-opacity="0.3"/>
<circle cx="603" cy="124" r="1" fill="#343D56" fill-opacity="0.3"/>
<circle cx="493" cy="58" r="1" fill="#343D56" fill-opacity="0.3"/>
<circle cx="493" cy="80" r="1" fill="#343D56" fill-opacity="0.3"/>
<circle cx="515" cy="58" r="1" fill="#343D56" fill-opacity="0.3"/>
<circle cx="515" cy="80" r="1" fill="#343D56" fill-opacity="0.3"/>
<circle cx="493" cy="146" r="1" fill="#343D56" fill-opacity="0.3"/>
<circle cx="493" cy="168" r="1" fill="#343D56" fill-opacity="0.3"/>
<circle cx="515" cy="146" r="1" fill="#343D56" fill-opacity="0.3"/>
<circle cx="515" cy="168" r="1" fill="#343D56" fill-opacity="0.3"/>
<circle cx="582" cy="58" r="1" fill="#343D56" fill-opacity="0.3"/>
<circle cx="582" cy="80" r="1" fill="#343D56" fill-opacity="0.3"/>
<circle cx="604" cy="58" r="1" fill="#343D56" fill-opacity="0.3"/>
<circle cx="604" cy="80" r="1" fill="#343D56" fill-opacity="0.3"/>
<circle cx="582" cy="146" r="1" fill="#343D56" fill-opacity="0.3"/>
<circle cx="582" cy="168" r="1" fill="#343D56" fill-opacity="0.3"/>
<circle cx="604" cy="146" r="1" fill="#343D56" fill-opacity="0.3"/>
<circle cx="604" cy="168" r="1" fill="#343D56" fill-opacity="0.3"/>
<defs>
<filter id="filter0_dd" x="0.856934" y="0" width="685.143" height="521.281" filterUnits="userSpaceOnUse" color-interpolation-filters="sRGB">
<feFlood flood-opacity="0" result="BackgroundImageFix"/>
<feColorMatrix in="SourceAlpha" type="matrix" values="0 0 0 0 0 0 0 0 0 0 0 0 0 0 0 0 0 0 127 0"/>
<feOffset dx="2" dy="8"/>
<feGaussianBlur stdDeviation="8"/>
<feColorMatrix type="matrix" values="0 0 0 0 0.203922 0 0 0 0 0.239216 0 0 0 0 0.337255 0 0 0 0.1 0"/>
<feBlend mode="normal" in2="BackgroundImageFix" result="effect1_dropShadow"/>
<feColorMatrix in="SourceAlpha" type="matrix" values="0 0 0 0 0 0 0 0 0 0 0 0 0 0 0 0 0 0 127 0"/>
<feOffset dx="30" dy="30"/>
<feGaussianBlur stdDeviation="40"/>
<feColorMatrix type="matrix" values="0 0 0 0 0.956863 0 0 0 0 0.976471 0 0 0 0 1 0 0 0 0.1 0"/>
<feBlend mode="normal" in2="effect1_dropShadow" result="effect2_dropShadow"/>
<feBlend mode="normal" in="SourceGraphic" in2="effect2_dropShadow" result="shape"/>
</filter>
<filter id="filter1_dd" x="281" y="241" width="314" height="364" filterUnits="userSpaceOnUse" color-interpolation-filters="sRGB">
<feFlood flood-opacity="0" result="BackgroundImageFix"/>
<feColorMatrix in="SourceAlpha" type="matrix" values="0 0 0 0 0 0 0 0 0 0 0 0 0 0 0 0 0 0 127 0"/>
<feOffset dx="2" dy="8"/>
<feGaussianBlur stdDeviation="8"/>
<feColorMatrix type="matrix" values="0 0 0 0 0.203922 0 0 0 0 0.239216 0 0 0 0 0.337255 0 0 0 0.1 0"/>
<feBlend mode="normal" in2="BackgroundImageFix" result="effect1_dropShadow"/>
<feColorMatrix in="SourceAlpha" type="matrix" values="0 0 0 0 0 0 0 0 0 0 0 0 0 0 0 0 0 0 127 0"/>
<feOffset dx="30" dy="30"/>
<feGaussianBlur stdDeviation="40"/>
<feColorMatrix type="matrix" values="0 0 0 0 0.956863 0 0 0 0 0.976471 0 0 0 0 1 0 0 0 0.1 0"/>
<feBlend mode="normal" in2="effect1_dropShadow" result="effect2_dropShadow"/>
<feBlend mode="normal" in="SourceGraphic" in2="effect2_dropShadow" result="shape"/>
</filter>
<filter id="filter2_dd" x="215" y="39" width="425" height="323" filterUnits="userSpaceOnUse" color-interpolation-filters="sRGB">
<feFlood flood-opacity="0" result="BackgroundImageFix"/>
<feColorMatrix in="SourceAlpha" type="matrix" values="0 0 0 0 0 0 0 0 0 0 0 0 0 0 0 0 0 0 127 0"/>
<feOffset dx="2" dy="8"/>
<feGaussianBlur stdDeviation="8"/>
<feColorMatrix type="matrix" values="0 0 0 0 0.203922 0 0 0 0 0.239216 0 0 0 0 0.337255 0 0 0 0.1 0"/>
<feBlend mode="normal" in2="BackgroundImageFix" result="effect1_dropShadow"/>
<feColorMatrix in="SourceAlpha" type="matrix" values="0 0 0 0 0 0 0 0 0 0 0 0 0 0 0 0 0 0 127 0"/>
<feOffset dx="30" dy="30"/>
<feGaussianBlur stdDeviation="40"/>
<feColorMatrix type="matrix" values="0 0 0 0 0.956863 0 0 0 0 0.976471 0 0 0 0 1 0 0 0 0.1 0"/>
<feBlend mode="normal" in2="effect1_dropShadow" result="effect2_dropShadow"/>
<feBlend mode="normal" in="SourceGraphic" in2="effect2_dropShadow" result="shape"/>
</filter>
<linearGradient id="paint0_linear" x1="133.499" y1="91.2482" x2="133.499" y2="116.266" gradientUnits="userSpaceOnUse">
<stop stop-color="#F4F9FF"/>
<stop offset="1" stop-color="#F4F9FF" stop-opacity="0.5"/>
</linearGradient>
<linearGradient id="paint1_linear" x1="91.2562" y1="179.728" x2="91.2562" y2="195.815" gradientUnits="userSpaceOnUse">
<stop stop-color="#F4F9FF"/>
<stop offset="1" stop-color="#F4F9FF"/>
</linearGradient>
<linearGradient id="paint2_linear" x1="104.126" y1="190.989" x2="184.562" y2="190.989" gradientUnits="userSpaceOnUse">
<stop stop-color="#F4F9FF"/>
<stop offset="1" stop-color="#F4F9FF" stop-opacity="0.5"/>
</linearGradient>
<linearGradient id="paint3_linear" x1="91.2562" y1="150.771" x2="91.2562" y2="166.858" gradientUnits="userSpaceOnUse">
<stop stop-color="#F4F9FF"/>
<stop offset="1" stop-color="#F4F9FF"/>
</linearGradient>
<linearGradient id="paint4_linear" x1="104.126" y1="162.032" x2="184.562" y2="162.032" gradientUnits="userSpaceOnUse">
<stop stop-color="#F4F9FF"/>
<stop offset="1" stop-color="#F4F9FF" stop-opacity="0.5"/>
</linearGradient>
<linearGradient id="paint5_linear" x1="91.2562" y1="208.685" x2="91.2562" y2="224.772" gradientUnits="userSpaceOnUse">
<stop stop-color="#F4F9FF"/>
<stop offset="1" stop-color="#F4F9FF"/>
</linearGradient>
<linearGradient id="paint6_linear" x1="104.126" y1="219.946" x2="184.562" y2="219.946" gradientUnits="userSpaceOnUse">
<stop stop-color="#F4F9FF"/>
<stop offset="1" stop-color="#F4F9FF" stop-opacity="0.5"/>
</linearGradient>
<linearGradient id="paint7_linear" x1="91.2562" y1="237.642" x2="91.2562" y2="253.729" gradientUnits="userSpaceOnUse">
<stop stop-color="#F4F9FF"/>
<stop offset="1" stop-color="#F4F9FF"/>
</linearGradient>
<linearGradient id="paint8_linear" x1="104.126" y1="248.903" x2="184.562" y2="248.903" gradientUnits="userSpaceOnUse">
<stop stop-color="#F4F9FF"/>
<stop offset="1" stop-color="#F4F9FF" stop-opacity="0.5"/>
</linearGradient>
<linearGradient id="paint9_linear" x1="91.2562" y1="266.598" x2="91.2562" y2="282.686" gradientUnits="userSpaceOnUse">
<stop stop-color="#F4F9FF"/>
<stop offset="1" stop-color="#F4F9FF"/>
</linearGradient>
<linearGradient id="paint10_linear" x1="104.126" y1="277.859" x2="184.562" y2="277.859" gradientUnits="userSpaceOnUse">
<stop stop-color="#F4F9FF"/>
<stop offset="1" stop-color="#F4F9FF" stop-opacity="0.5"/>
</linearGradient>
<linearGradient id="paint11_linear" x1="452" y1="97" x2="475" y2="232" gradientUnits="userSpaceOnUse">
<stop stop-color="#FF9B21"/>
<stop offset="1" stop-color="#FF9B21" stop-opacity="0"/>
</linearGradient>
<linearGradient id="paint12_linear" x1="441" y1="122" x2="339" y2="256" gradientUnits="userSpaceOnUse">
<stop stop-color="#5173FC"/>
<stop offset="1" stop-color="#5173FC" stop-opacity="0"/>
</linearGradient>
<linearGradient id="paint13_linear" x1="474.5" y1="148" x2="475" y2="537" gradientUnits="userSpaceOnUse">
<stop stop-color="#80F0D8"/>
<stop offset="1" stop-color="#80F0D8" stop-opacity="0"/>
</linearGradient>
<clipPath id="clip0">
<rect width="249" height="248" fill="white" transform="translate(67 478)"/>
</clipPath>
<clipPath id="clip1">
<rect width="57" height="100" fill="white" transform="translate(165 293)"/>
</clipPath>
<clipPath id="clip2">
<rect x="267" y="91" width="261" height="159" rx="10" fill="white"/>
</clipPath>
</defs>
</svg>
