<svg width="107" height="48" viewBox="0 0 107 48" fill="none" xmlns="http://www.w3.org/2000/svg">
<path d="M1.376 26.168C1.376 24.376 1.73867 22.808 2.464 21.464C3.18933 20.0987 4.18133 19.0427 5.44 18.296C6.72 17.5493 8.14933 17.176 9.728 17.176C11.0933 17.176 12.3627 17.496 13.536 18.136C14.7093 18.7547 15.6053 19.576 16.224 20.6V11.32H19.168V35H16.224V31.704C15.648 32.7493 14.7947 33.6133 13.664 34.296C12.5333 34.9573 11.2107 35.288 9.696 35.288C8.13867 35.288 6.72 34.904 5.44 34.136C4.18133 33.368 3.18933 32.2907 2.464 30.904C1.73867 29.5173 1.376 27.9387 1.376 26.168ZM16.224 26.2C16.224 24.8773 15.9573 23.7253 15.424 22.744C14.8907 21.7627 14.1653 21.016 13.248 20.504C12.352 19.9707 11.36 19.704 10.272 19.704C9.184 19.704 8.192 19.96 7.296 20.472C6.4 20.984 5.68533 21.7307 5.152 22.712C4.61867 23.6933 4.352 24.8453 4.352 26.168C4.352 27.512 4.61867 28.6853 5.152 29.688C5.68533 30.6693 6.4 31.4267 7.296 31.96C8.192 32.472 9.184 32.728 10.272 32.728C11.36 32.728 12.352 32.472 13.248 31.96C14.1653 31.4267 14.8907 30.6693 15.424 29.688C15.9573 28.6853 16.224 27.5227 16.224 26.2ZM40.089 25.56C40.089 26.1147 40.057 26.7013 39.993 27.32H25.977C26.0837 29.048 26.6703 30.4027 27.737 31.384C28.825 32.344 30.137 32.824 31.673 32.824C32.9317 32.824 33.977 32.536 34.809 31.96C35.6623 31.3627 36.2597 30.5733 36.601 29.592H39.737C39.2677 31.2773 38.329 32.6533 36.921 33.72C35.513 34.7653 33.7637 35.288 31.673 35.288C30.009 35.288 28.5157 34.9147 27.193 34.168C25.8917 33.4213 24.8677 32.3653 24.121 31C23.3743 29.6133 23.001 28.0133 23.001 26.2C23.001 24.3867 23.3637 22.7973 24.089 21.432C24.8143 20.0667 25.8277 19.0213 27.129 18.296C28.4517 17.5493 29.9663 17.176 31.673 17.176C33.337 17.176 34.809 17.5387 36.089 18.264C37.369 18.9893 38.3503 19.992 39.033 21.272C39.737 22.5307 40.089 23.96 40.089 25.56ZM37.081 24.952C37.081 23.8427 36.8357 22.8933 36.345 22.104C35.8543 21.2933 35.1823 20.6853 34.329 20.28C33.497 19.8533 32.569 19.64 31.545 19.64C30.073 19.64 28.8143 20.1093 27.769 21.048C26.745 21.9867 26.1583 23.288 26.009 24.952H37.081ZM46.1088 32.6H54.7168V35H42.7808V32.6L51.2928 19.832H42.8448V17.464H54.6528V19.832L46.1088 32.6ZM67.0393 17.144C69.1726 17.144 70.9006 17.7947 72.2233 19.096C73.5459 20.376 74.2073 22.232 74.2073 24.664V35H71.3273V25.08C71.3273 23.3307 70.8899 21.9973 70.0153 21.08C69.1406 20.1413 67.9459 19.672 66.4313 19.672C64.8953 19.672 63.6686 20.152 62.7513 21.112C61.8553 22.072 61.4073 23.4693 61.4073 25.304V35H58.4953V17.464H61.4073V19.96C61.9833 19.064 62.7619 18.3707 63.7433 17.88C64.7459 17.3893 65.8446 17.144 67.0393 17.144ZM80.468 14.616C79.9133 14.616 79.444 14.424 79.06 14.04C78.676 13.656 78.484 13.1867 78.484 12.632C78.484 12.0773 78.676 11.608 79.06 11.224C79.444 10.84 79.9133 10.648 80.468 10.648C81.0013 10.648 81.4493 10.84 81.812 11.224C82.196 11.608 82.388 12.0773 82.388 12.632C82.388 13.1867 82.196 13.656 81.812 14.04C81.4493 14.424 81.0013 14.616 80.468 14.616ZM81.876 17.464V35H78.964V17.464H81.876ZM90.391 19.864V30.2C90.391 31.0533 90.5723 31.6613 90.935 32.024C91.2977 32.3653 91.927 32.536 92.823 32.536H94.967V35H92.343C90.7217 35 89.5057 34.6267 88.695 33.88C87.8843 33.1333 87.479 31.9067 87.479 30.2V19.864H85.207V17.464H87.479V13.048H90.391V17.464H94.967V19.864H90.391Z" fill="#343D56"/>
<path d="M102 26L106.33 28.5V33.5L102 36L97.6699 33.5V28.5L102 26Z" fill="#80F0D8"/>
</svg>
